<?xml version="1.0" standalone="no"?>
<!DOCTYPE svg PUBLIC "-//W3C//DTD SVG 20010904//EN"
 "http://www.w3.org/TR/2001/REC-SVG-20010904/DTD/svg10.dtd">
<svg version="1.0" xmlns="http://www.w3.org/2000/svg"
 width="260.000000pt" height="260.000000pt" viewBox="0 0 260.000000 260.000000"
 preserveAspectRatio="xMidYMid meet">
<metadata>
Created by potrace 1.11, written by Peter Selinger 2001-2013
</metadata>
<g transform="translate(0.000000,260.000000) scale(0.100000,-0.100000)"
fill="#000000" stroke="none">
<path d="M990 1790 l0 -90 -456 0 -457 0 6 -40 c11 -86 67 -130 164 -130 61 0
61 0 80 -37 24 -48 89 -83 153 -83 43 0 47 -2 63 -35 24 -50 70 -75 138 -75
53 0 57 -2 80 -37 40 -62 81 -83 160 -83 l68 0 3 -127 3 -128 43 -3 c40 -3 42
-5 42 -35 1 -78 70 -162 144 -174 107 -17 206 65 206 172 l0 35 225 0 225 0 0
-34 c0 -96 80 -176 175 -176 39 0 100 27 127 57 24 27 48 87 48 122 0 29 2 30
48 33 l47 3 -1 115 c-1 125 -21 198 -68 251 -39 45 -65 55 -294 119 -214 60
-223 64 -251 99 -56 72 -61 89 -61 236 l0 135 -330 0 -330 0 0 -90z m600 -24
l0 -54 -59 -7 c-40 -4 -62 -12 -65 -22 -11 -28 14 -43 70 -43 53 0 54 -1 56
-30 0 -16 1 -35 2 -41 1 -6 -19 -19 -44 -29 -55 -22 -71 -43 -48 -66 16 -16
20 -16 69 4 65 27 65 27 85 -3 16 -24 15 -26 -21 -70 -38 -46 -40 -70 -9 -82
13 -5 29 7 59 41 37 43 44 47 70 40 46 -10 46 -12 24 -55 -43 -86 6 -121 51
-37 14 26 29 50 32 53 6 7 288 -69 319 -85 21 -12 66 -97 74 -142 l7 -38 -606
0 -606 0 0 40 0 40 255 0 c140 0 255 2 255 5 0 8 -280 417 -304 443 -37 41
-104 74 -154 77 l-47 1 -3 57 -3 57 271 0 270 0 0 -54z m-600 -141 c0 -23
-811 -23 -830 0 -11 13 35 15 409 15 368 0 421 -2 421 -15z m166 -1 c18 -9 39
-23 46 -31 11 -14 9 -14 -19 0 -18 10 -48 17 -68 17 l-35 0 0 -185 c0 -158 -2
-185 -15 -185 -13 0 -15 29 -15 200 l0 200 36 0 c20 0 51 -7 70 -16z m-426
-94 l0 -29 -166 -3 c-153 -3 -184 1 -184 24 0 4 72 8 160 8 136 0 160 2 160
15 0 8 7 15 15 15 10 0 15 -10 15 -30z m110 -114 l0 -35 -111 -3 c-95 -3 -113
-1 -126 15 -15 16 -10 17 95 17 105 0 112 1 112 20 0 11 7 20 15 20 10 0 15
-10 15 -34z m130 -121 l0 -36 -72 3 c-60 2 -73 6 -76 21 -3 15 5 17 57 17 48
0 61 3 61 15 0 8 7 15 15 15 11 0 15 -11 15 -35z m1300 -285 l0 -30 -610 0
-610 0 0 30 0 30 610 0 610 0 0 -30z m-903 -107 c3 -9 -22 -13 -94 -15 l-98
-3 1 -37 c1 -21 -3 -35 -8 -32 -16 10 -29 57 -23 81 5 23 8 24 112 21 72 -2
108 -7 110 -15z m797 2 c4 -13 -10 -15 -96 -15 l-101 0 5 -45 c3 -25 4 -45 2
-45 -2 0 -10 13 -19 30 -16 30 -20 72 -8 83 3 4 52 7 109 7 81 0 103 -3 108
-15z"/>
</g>
</svg>
